<?xml version="1.0" standalone="no"?>
<!DOCTYPE svg PUBLIC "-//W3C//DTD SVG 20010904//EN"
 "http://www.w3.org/TR/2001/REC-SVG-20010904/DTD/svg10.dtd">
<svg version="1.0" xmlns="http://www.w3.org/2000/svg"
 width="512.000000pt" height="512.000000pt" viewBox="0 0 512.000000 512.000000"
 preserveAspectRatio="xMidYMid meet">

<g transform="translate(0.000000,512.000000) scale(0.100000,-0.100000)"
fill="#000000" stroke="none">
<path d="M2280 4860 c-316 -31 -707 -176 -995 -368 -535 -356 -905 -931 -1010
-1572 -22 -137 -30 -409 -16 -574 58 -687 440 -1322 1036 -1721 211 -142 553
-286 790 -334 183 -37 556 -52 753 -30 303 32 657 155 932 323 282 173 551
433 733 711 135 207 264 509 321 755 61 260 61 763 -1 1025 -104 444 -325 831
-654 1150 -344 333 -735 531 -1223 621 -96 18 -535 27 -666 14z m565 -181 c50
-6 149 -26 220 -44 906 -228 1564 -1010 1615 -1919 20 -367 -32 -682 -166
-996 -275 -645 -890 -1132 -1589 -1256 -123 -21 -470 -30 -616 -15 -529 55
-1034 333 -1392 763 -255 309 -399 625 -463 1023 -23 136 -25 492 -5 635 18
128 71 335 116 451 207 527 578 931 1070 1165 188 89 450 170 630 193 101 12
475 13 580 0z"/>
<path d="M2029 4545 l-47 -24 53 -143 c56 -152 72 -208 58 -208 -4 0 -75 50
-158 110 -82 60 -169 120 -192 132 -76 41 -75 25 17 -229 115 -319 120 -328
180 -303 25 11 30 18 30 48 0 20 -20 96 -46 170 -25 74 -44 140 -42 148 2 9
54 -23 143 -87 167 -120 203 -144 233 -153 19 -6 22 -4 22 21 0 55 -173 533
-195 539 -6 2 -31 -8 -56 -21z"/>
<path d="M2976 4542 c-17 -33 -83 -250 -125 -411 -34 -129 -32 -141 30 -141
35 0 41 4 57 38 11 20 52 135 91 255 40 119 75 217 77 217 12 0 51 -25 76 -48
42 -39 53 -83 32 -127 -21 -46 -79 -93 -122 -101 -18 -4 -36 -12 -39 -20 -5
-13 14 -222 23 -261 6 -22 74 -53 116 -53 21 0 21 -1 4 144 -7 59 -11 119 -8
133 5 25 7 27 54 37 37 8 88 54 105 93 29 71 -11 134 -121 190 -47 24 -209 83
-228 83 -4 0 -14 -13 -22 -28z"/>
<path d="M1348 4203 c-71 -55 -187 -158 -187 -168 -2 -19 289 -367 358 -429
20 -19 21 -18 73 22 29 23 82 70 117 106 97 98 65 100 -52 3 l-48 -40 -79 84
-78 84 72 68 c84 82 75 100 -16 33 -34 -25 -70 -46 -79 -46 -18 0 -118 105
-140 148 -13 22 -10 27 54 84 37 33 67 64 67 69 0 17 -26 9 -62 -18z"/>
<path d="M3614 4159 c-50 -24 -150 -126 -188 -191 -61 -105 -42 -216 50 -297
91 -80 172 -94 269 -47 73 36 177 149 205 222 24 65 25 96 5 155 -22 65 -67
113 -137 148 -75 38 -143 41 -204 10z m249 -81 c22 -26 22 -89 1 -131 -43 -83
-168 -218 -234 -252 -43 -22 -91 -23 -123 -2 -68 44 -21 162 120 303 105 105
191 135 236 82z"/>
<path d="M2426 3897 c-74 -132 -159 -321 -685 -1518 -297 -678 -311 -710 -311
-741 0 -18 2 -19 16 -7 44 36 85 125 494 1054 363 826 550 1256 550 1266 0 5
-7 9 -15 9 -7 0 -30 -28 -49 -63z"/>
<path d="M2552 3948 c7 -20 48 -23 48 -4 0 11 -9 16 -26 16 -16 0 -24 -5 -22
-12z"/>
<path d="M2640 3951 c0 -9 575 -1302 788 -1771 157 -346 253 -534 276 -539 32
-5 15 53 -72 241 -44 95 -190 421 -325 723 -514 1154 -611 1355 -652 1355 -8
0 -15 -4 -15 -9z"/>
<path d="M2544 3815 c-10 -25 4 -47 28 -43 17 2 24 11 26 31 3 23 0 27 -23 27
-14 0 -28 -7 -31 -15z"/>
<path d="M955 3708 c-54 -30 -157 -156 -209 -255 l-16 -33 37 -23 c64 -40 171
-100 322 -182 102 -55 149 -75 159 -69 8 5 25 28 39 51 l24 42 -80 46 c-45 26
-83 51 -86 56 -3 5 3 38 15 75 24 79 26 173 5 215 -26 49 -90 89 -144 89 -25
0 -55 -6 -66 -12z m89 -138 c57 -41 80 -88 73 -147 -2 -24 -8 -47 -12 -51 -7
-7 -213 96 -254 127 -24 18 -24 20 -7 45 47 72 122 82 200 26z"/>
<path d="M2545 3661 c-8 -27 2 -58 22 -65 24 -10 35 7 31 45 -2 26 -8 35 -25
37 -14 2 -23 -3 -28 -17z"/>
<path d="M4155 3524 c-294 -52 -435 -86 -435 -104 0 -5 33 -10 72 -12 l73 -3
27 -55 c46 -95 46 -105 -2 -150 -41 -38 -41 -39 -30 -73 21 -58 36 -72 62 -60
28 14 223 182 342 295 85 81 89 87 82 118 -3 18 -11 39 -17 47 -14 16 -70 16
-174 -3z m-20 -110 c-38 -36 -91 -82 -116 -104 l-45 -39 -37 75 -37 74 26 10
c32 12 219 48 254 49 22 0 16 -8 -45 -65z"/>
<path d="M2544 3486 c-10 -41 -1 -61 29 -64 25 -3 27 0 27 30 0 55 -44 81 -56
34z"/>
<path d="M2547 3314 c-12 -12 -8 -79 7 -99 8 -11 19 -16 30 -12 14 5 16 17 14
59 -3 45 -6 53 -23 56 -12 2 -24 0 -28 -4z"/>
<path d="M2552 3098 c-26 -26 -8 -118 22 -118 19 0 26 23 26 81 0 41 -3 49
-18 49 -10 0 -23 -5 -30 -12z"/>
<path d="M722 3022 c-79 -25 -142 -129 -142 -237 0 -135 67 -214 208 -244 121
-26 252 -8 309 42 55 48 73 97 73 200 0 98 -11 129 -61 171 -70 59 -104 70
-239 72 -69 2 -135 0 -148 -4z m227 -133 c81 -14 166 -53 188 -85 13 -20 13
-29 3 -53 -24 -59 -51 -73 -147 -78 -113 -7 -254 11 -310 38 -44 21 -73 60
-73 99 0 28 43 66 88 78 52 14 173 14 251 1z"/>
<path d="M4123 2962 l-182 -15 -6 -37 c-8 -50 12 -164 42 -227 46 -99 140
-156 258 -157 91 -1 161 24 208 72 58 60 70 99 75 250 l4 132 -108 -1 c-60 -1
-191 -8 -291 -17z m365 -147 c4 -43 -29 -89 -81 -114 -86 -42 -281 -45 -357
-6 -35 18 -70 61 -70 86 0 10 9 23 21 29 28 16 272 38 389 36 l95 -1 3 -30z"/>
<path d="M2551 2871 c-24 -45 -4 -132 32 -139 16 -3 18 4 15 75 -2 63 -6 78
-20 81 -9 2 -21 -6 -27 -17z"/>
<path d="M2550 2634 c-16 -19 -9 -137 10 -159 13 -16 15 -15 27 11 32 75 2
196 -37 148z"/>
<path d="M2556 2365 c-11 -11 -16 -33 -15 -68 1 -75 11 -101 37 -105 22 -3 23
-2 20 89 -3 96 -12 114 -42 84z"/>
<path d="M2550 2090 c-18 -34 -7 -150 16 -167 29 -21 37 -1 32 81 -2 53 -8 81
-20 92 -15 15 -17 15 -28 -6z"/>
<path d="M2551 1806 c-7 -9 -11 -39 -9 -78 3 -61 4 -63 31 -66 l28 -3 -3 78
c-2 62 -6 78 -19 81 -9 1 -21 -4 -28 -12z"/>
<path d="M1876 1488 c-8 -13 -19 -41 -25 -63 -6 -22 -29 -71 -52 -110 -88
-150 -138 -268 -119 -280 4 -3 31 37 58 87 61 113 111 183 122 172 4 -5 15
-34 24 -64 26 -89 56 -134 93 -138 41 -4 83 45 156 186 61 119 79 172 66 193
-13 19 -42 -17 -64 -79 -24 -65 -99 -223 -119 -247 -16 -20 -16 -20 -31 -1
-21 27 -45 145 -53 261 -6 82 -10 100 -24 103 -9 2 -23 -7 -32 -20z"/>
<path d="M3358 1466 c-72 -29 -177 -104 -216 -153 -47 -60 -76 -126 -68 -158
9 -35 47 -72 82 -81 67 -17 239 49 295 114 26 29 30 41 26 69 -5 31 -3 34 30
48 60 25 27 35 -64 19 -94 -16 -159 -39 -167 -59 -9 -23 9 -26 70 -10 72 19
104 19 104 2 0 -31 -98 -96 -190 -127 -70 -24 -114 -20 -131 11 -28 53 101
197 235 263 76 38 114 44 146 24 15 -10 22 -10 32 0 11 11 8 18 -15 38 -36 31
-93 31 -169 0z"/>
<path d="M3899 1412 c-46 -42 -99 -88 -116 -100 l-33 -23 -10 26 c-5 14 -10
52 -10 84 0 75 -21 99 -52 61 -21 -26 -21 -29 -2 -175 4 -37 0 -69 -16 -122
-34 -114 -22 -120 41 -22 40 61 77 102 129 145 67 54 170 172 170 195 0 20
-21 6 -101 -69z"/>
<path d="M1500 1471 c-32 -5 -35 -10 -40 -46 -8 -55 -21 -75 -66 -100 -32 -18
-40 -29 -45 -61 -3 -21 -18 -64 -33 -95 -29 -62 -26 -89 8 -89 25 0 159 39
224 65 47 19 57 39 15 31 -91 -17 -175 -27 -181 -22 -9 9 28 74 59 106 22 21
49 31 138 49 61 13 111 27 111 32 0 5 -43 9 -95 9 -52 0 -95 4 -95 9 0 15 83
71 120 81 19 5 53 12 74 15 29 5 36 9 25 16 -15 10 -164 10 -219 0z"/>
<path d="M2400 1471 c-51 -10 -60 -18 -60 -53 0 -41 -33 -84 -76 -100 -30 -11
-34 -15 -29 -39 4 -19 -4 -46 -30 -95 -65 -125 -34 -133 198 -47 70 26 92 51
35 39 -86 -17 -169 -28 -174 -23 -8 8 24 68 54 100 27 28 78 47 190 68 34 6
62 16 62 20 0 5 -38 9 -85 9 -65 0 -85 3 -85 13 0 33 71 71 163 88 37 7 67 16
67 21 0 10 -179 9 -230 -1z"/>
<path d="M2713 1470 c-63 -20 -49 -54 18 -44 20 4 39 2 42 -2 3 -5 -18 -41
-47 -80 -82 -112 -160 -284 -128 -284 6 0 36 39 67 88 32 48 59 88 60 90 1 1
65 -25 142 -58 77 -33 146 -60 154 -60 18 1 -42 53 -98 87 -24 14 -43 28 -43
32 0 5 29 16 64 25 66 18 136 66 136 93 0 28 -33 71 -73 93 -33 19 -58 23
-151 26 -61 2 -125 -1 -143 -6z m266 -48 c24 -9 49 -25 55 -35 9 -15 6 -22
-18 -42 -16 -13 -55 -30 -86 -39 -54 -15 -160 -22 -160 -10 0 3 15 25 34 48
19 23 39 54 45 69 9 23 16 27 48 26 21 0 58 -8 82 -17z"/>
</g>
</svg>
