<?xml version="1.0" standalone="no"?>
<!DOCTYPE svg PUBLIC "-//W3C//DTD SVG 20010904//EN"
 "http://www.w3.org/TR/2001/REC-SVG-20010904/DTD/svg10.dtd">
<svg version="1.0" xmlns="http://www.w3.org/2000/svg"
 width="503.000000pt" height="504.000000pt" viewBox="0 0 503.000000 504.000000"
 preserveAspectRatio="xMidYMid meet">

<g transform="translate(0.000000,504.000000) scale(0.100000,-0.100000)"
fill="#000000" stroke="none">
<path d="M2305 4468 c-337 -38 -689 -182 -970 -397 -85 -65 -247 -223 -318
-311 -375 -464 -519 -1072 -390 -1650 37 -170 76 -280 152 -435 113 -227 222
-376 407 -555 689 -664 1767 -724 2533 -141 443 337 713 838 762 1413 43 500
-140 1035 -489 1435 -200 228 -514 440 -802 541 -274 96 -600 133 -885 100z
m449 -153 c525 -69 979 -351 1271 -790 439 -658 391 -1536 -117 -2140 -273
-325 -624 -531 -1048 -617 -98 -19 -146 -23 -325 -23 -220 0 -279 7 -460 52
-573 142 -1061 598 -1250 1165 -286 861 107 1795 921 2189 310 150 670 208
1008 164z"/>
<path d="M2091 4206 c-19 -7 -37 -18 -39 -24 -2 -7 20 -78 48 -157 29 -80 51
-148 48 -150 -2 -3 -76 49 -163 115 -87 66 -161 120 -164 120 -3 0 -12 -4 -20
-9 -12 -8 0 -49 64 -230 44 -122 82 -227 86 -233 6 -9 17 -9 48 0 22 7 43 16
46 21 2 5 -19 76 -49 157 -29 82 -52 151 -50 153 2 2 73 -49 159 -113 145
-107 185 -129 199 -107 7 11 -156 464 -169 467 -5 1 -25 -3 -44 -10z"/>
<path d="M2887 4213 c-8 -13 -147 -449 -147 -460 0 -14 89 -38 99 -27 4 5 38
104 76 219 37 116 69 212 71 214 2 2 17 -2 34 -9 67 -28 88 -95 50 -157 -21
-35 -49 -53 -95 -63 l-30 -6 3 -70 c2 -38 7 -94 10 -124 l7 -55 53 -19 c29
-10 55 -16 58 -13 3 3 -2 61 -11 128 -18 130 -16 138 30 139 27 0 76 33 91 62
17 30 17 77 0 107 -20 37 -89 77 -189 110 -100 34 -104 34 -110 24z"/>
<path d="M1455 3869 c-44 -39 -88 -78 -99 -88 -17 -18 -14 -23 124 -182 79
-90 153 -175 166 -188 l23 -24 100 87 c92 80 120 116 90 116 -6 0 -36 -22 -67
-50 -31 -27 -59 -50 -63 -50 -4 0 -35 32 -68 71 l-62 71 47 41 c26 23 54 47
62 53 14 10 9 34 -7 34 -4 0 -33 -23 -65 -52 l-59 -52 -63 70 c-35 38 -63 74
-64 81 0 6 25 34 56 61 31 28 53 55 49 61 -10 17 -16 14 -100 -60z"/>
<path d="M3448 3890 c-66 -20 -158 -110 -203 -199 -21 -43 -22 -118 -2 -157
20 -37 83 -97 124 -118 44 -22 108 -20 159 5 60 29 158 136 178 195 29 87 20
128 -46 200 -66 72 -136 97 -210 74z m181 -86 c12 -15 21 -34 21 -43 0 -58
-133 -228 -214 -276 -52 -30 -75 -31 -110 -4 -55 43 -22 130 94 250 79 82 104
97 157 98 23 1 37 -6 52 -25z"/>
<path d="M2360 3548 c-43 -90 -164 -359 -268 -598 -244 -560 -395 -901 -471
-1069 -34 -74 -61 -136 -61 -138 0 -2 10 -3 23 -1 34 5 39 15 599 1288 153
349 281 645 285 658 4 16 1 22 -12 22 -11 0 -40 -48 -95 -162z"/>
<path d="M2520 3695 c0 -8 9 -15 20 -15 11 0 20 7 20 15 0 8 -9 15 -20 15 -11
0 -20 -7 -20 -15z"/>
<path d="M2593 3698 c3 -7 89 -200 192 -428 103 -228 270 -602 372 -830 219
-493 306 -675 326 -683 43 -16 34 15 -59 219 -52 115 -183 405 -289 644 -247
555 -421 937 -465 1020 -26 48 -41 66 -59 68 -17 3 -22 0 -18 -10z"/>
<path d="M2527 3604 c-4 -4 -7 -20 -7 -36 0 -25 4 -29 23 -26 17 2 22 10 22
33 0 29 -22 45 -38 29z"/>
<path d="M1165 3492 c-17 -10 -44 -35 -62 -55 -32 -36 -113 -168 -113 -184 0
-8 420 -243 434 -243 7 0 46 75 46 89 0 6 -26 24 -57 40 -88 46 -84 39 -63
101 26 74 26 156 0 198 -41 67 -124 91 -185 54z m80 -105 c50 -28 78 -78 71
-131 -2 -21 -8 -42 -13 -46 -11 -11 -233 111 -233 128 0 8 13 27 29 43 37 36
88 39 146 6z"/>
<path d="M2520 3435 c0 -32 3 -36 23 -33 17 2 22 10 22 33 0 23 -5 31 -22 33
-20 3 -23 -1 -23 -33z"/>
<path d="M3742 3315 c-128 -23 -236 -45 -239 -48 -3 -3 -2 -11 2 -17 5 -8 24
-10 61 -5 l53 6 36 -72 37 -72 -38 -38 -37 -38 17 -46 c10 -25 22 -45 28 -45
12 0 22 9 240 207 l148 134 -20 39 c-13 25 -27 40 -38 39 -9 -1 -122 -20 -250
-44z m137 -48 c-20 -18 -63 -56 -97 -85 l-61 -53 -31 61 c-17 34 -29 64 -26
67 8 8 177 41 216 41 l35 1 -36 -32z"/>
<path d="M2520 3290 c0 -34 3 -40 20 -40 25 0 34 21 26 55 -4 16 -13 25 -26
25 -17 0 -20 -7 -20 -40z"/>
<path d="M2533 3173 c-8 -3 -13 -24 -13 -55 0 -46 2 -49 23 -46 18 2 23 10 25
44 3 42 -12 65 -35 57z"/>
<path d="M2527 2993 c-4 -3 -7 -31 -7 -60 0 -51 2 -54 23 -51 18 2 23 10 25
46 4 52 -19 88 -41 65z"/>
<path d="M963 2904 c-67 -33 -103 -98 -103 -186 0 -73 17 -114 63 -155 44 -38
87 -52 188 -60 153 -12 237 48 254 183 20 151 -87 244 -281 244 -55 0 -81 -5
-121 -26z m269 -109 c54 -15 108 -59 108 -91 0 -59 -61 -87 -185 -86 -143 2
-248 37 -261 88 -14 55 11 87 81 105 40 11 190 1 257 -16z"/>
<path d="M3898 2871 c-114 -10 -210 -20 -213 -23 -3 -3 -1 -43 4 -89 21 -168
94 -250 230 -257 167 -10 256 64 268 222 3 40 3 94 -1 120 -8 54 21 52 -288
27z m262 -118 c0 -40 -32 -87 -73 -106 -45 -22 -167 -39 -220 -31 -67 11 -117
40 -133 81 -8 19 -12 38 -9 42 6 5 318 36 403 40 29 1 32 -2 32 -26z"/>
<path d="M2527 2803 c-4 -3 -7 -33 -7 -65 0 -45 4 -60 16 -65 22 -8 34 14 34
68 0 52 -22 84 -43 62z"/>
<path d="M2520 2524 c0 -72 1 -75 23 -72 19 3 22 10 25 52 4 68 -4 96 -28 96
-18 0 -20 -7 -20 -76z"/>
<path d="M2533 2373 c-19 -7 -18 -149 1 -156 24 -10 36 16 36 79 0 61 -12 86
-37 77z"/>
<path d="M2522 2063 c3 -70 5 -78 23 -78 18 0 20 7 20 75 0 71 -1 75 -23 78
-22 3 -23 2 -20 -75z"/>
<path d="M2527 1903 c-4 -3 -7 -34 -7 -69 0 -63 14 -86 39 -61 12 12 15 94 5
121 -6 16 -26 21 -37 9z"/>
<path d="M1952 1638 c-6 -6 -12 -27 -12 -46 0 -24 -14 -55 -45 -101 -56 -85
-105 -189 -104 -221 0 -29 -5 -37 80 108 57 96 79 116 79 72 0 -29 36 -119 56
-141 25 -28 58 -23 87 11 34 40 101 163 123 227 17 49 18 54 2 69 -16 16 -18
16 -27 -7 -5 -13 -17 -49 -26 -80 -22 -73 -87 -193 -107 -197 -25 -5 -51 89
-57 208 -5 83 -9 105 -21 108 -9 1 -21 -3 -28 -10z"/>
<path d="M3660 1561 c-87 -88 -126 -113 -141 -91 -5 8 -8 44 -7 80 3 63 2 65
-22 65 -24 0 -25 -3 -28 -62 -2 -40 2 -72 11 -89 13 -25 12 -33 -8 -83 -26
-64 -34 -113 -20 -118 6 -1 27 31 49 73 32 62 47 81 90 108 81 52 177 170 155
190 -2 2 -38 -31 -79 -73z"/>
<path d="M3196 1605 c-161 -66 -274 -216 -221 -292 46 -66 206 -36 304 56 29
27 32 36 27 65 -6 31 -4 34 26 41 l33 9 -35 4 c-44 5 -163 -15 -186 -32 -10
-8 -15 -20 -11 -29 5 -14 11 -13 58 4 85 32 108 4 42 -50 -76 -62 -201 -91
-223 -51 -47 88 230 293 333 246 26 -12 22 19 -5 38 -31 22 -73 20 -142 -9z"/>
<path d="M1635 1611 c-25 -5 -30 -11 -30 -36 -1 -40 -33 -82 -68 -90 -23 -6
-28 -12 -25 -33 1 -15 -11 -52 -26 -83 -30 -59 -30 -89 1 -89 16 0 241 69 252
77 2 2 2 6 -2 9 -3 4 -49 -1 -102 -11 -53 -9 -99 -14 -102 -11 -3 3 10 30 30
60 39 58 52 64 183 81 52 7 83 19 73 29 -3 3 -43 2 -88 -2 -45 -5 -84 -5 -86
-2 -2 4 10 23 28 42 28 31 40 36 97 41 104 11 98 27 -10 26 -52 -1 -108 -4
-125 -8z"/>
<path d="M2375 1611 c-25 -5 -30 -11 -30 -36 0 -40 -23 -74 -63 -91 -27 -11
-32 -17 -27 -35 5 -14 -3 -40 -24 -79 -33 -61 -32 -90 1 -90 15 0 144 39 247
76 8 2 11 7 8 10 -3 4 -52 -1 -107 -11 -56 -9 -104 -15 -106 -13 -2 3 12 29
31 60 l35 56 111 20 c62 12 114 24 117 27 13 12 -9 14 -91 7 -99 -9 -107 -2
-53 46 27 24 47 31 100 37 36 3 68 11 71 16 7 10 -172 10 -220 0z"/>
<path d="M2660 1613 c-32 -12 -41 -25 -29 -39 8 -10 16 -11 29 -4 10 6 28 10
39 10 18 0 13 -11 -34 -81 -64 -93 -100 -161 -110 -206 -11 -52 11 -40 52 28
60 97 66 103 89 91 47 -27 218 -102 222 -97 8 8 -17 33 -69 65 -27 18 -49 36
-49 40 0 4 16 10 36 13 20 3 56 16 80 27 51 25 65 57 40 95 -32 49 -62 60
-175 62 -58 1 -113 0 -121 -4z m237 -44 c35 -11 49 -35 32 -55 -26 -32 -219
-78 -219 -53 0 6 16 30 35 53 19 24 35 51 35 61 0 15 6 17 43 11 23 -4 56 -11
74 -17z"/>
<path d="M658 1590 c-42 -22 -56 -34 -51 -46 3 -9 12 -13 22 -8 39 16 48 15
59 -8 10 -21 11 -21 6 8 -5 26 -2 32 22 43 25 11 30 10 46 -11 18 -22 18 -22
1 15 -9 20 -24 37 -32 37 -9 -1 -42 -14 -73 -30z"/>
<path d="M4306 1598 c-14 -49 -3 -60 61 -56 53 3 57 2 63 -22 6 -24 7 -24 14
8 12 51 -6 65 -70 57 -49 -6 -53 -5 -56 17 -4 22 -5 22 -12 -4z"/>
<path d="M728 1486 c-32 -18 -60 -35 -64 -38 -5 -6 22 -68 30 -68 2 0 1 10 -1
23 -3 18 6 27 56 55 42 23 59 37 55 47 -8 20 -10 19 -76 -19z"/>
<path d="M4250 1482 c0 -10 22 -39 48 -65 50 -49 70 -60 53 -28 -6 10 -7 22
-3 26 4 5 1 5 -6 1 -13 -8 -52 19 -52 36 0 9 53 -1 58 -12 1 -3 16 -4 32 -2
53 8 34 29 -39 46 -88 20 -91 20 -91 -2z"/>
<path d="M781 1387 c-57 -16 -69 -22 -53 -28 25 -10 46 -45 32 -54 -5 -3 -10
-13 -10 -21 0 -28 29 -13 74 40 71 82 64 92 -43 63z m23 -32 c-18 -27 -37 -28
-42 -3 -3 15 13 24 46 27 9 1 8 -6 -4 -24z"/>
<path d="M4201 1383 l-22 -18 31 -1 c32 -1 90 -47 90 -71 0 -21 -17 -16 -76
22 -51 33 -74 37 -74 14 0 -9 94 -74 124 -85 9 -3 19 9 30 35 20 51 8 83 -39
106 -41 19 -38 19 -64 -2z"/>
<path d="M853 1275 c-43 -55 -54 -85 -31 -85 17 0 150 51 145 56 -2 2 -25 -3
-51 -12 -26 -9 -49 -14 -52 -12 -2 3 9 22 26 43 30 37 34 55 14 62 -5 2 -28
-22 -51 -52z"/>
<path d="M4091 1244 c-28 -36 -26 -60 8 -95 37 -36 79 -38 109 -6 35 38 27 73
-28 110 -35 24 -65 21 -89 -9z m84 -35 c56 -49 43 -83 -20 -53 -37 17 -65 48
-65 71 0 24 49 13 85 -18z"/>
<path d="M921 1174 c-38 -32 -41 -71 -8 -102 29 -28 57 -28 91 -1 34 27 49 55
38 74 -6 13 -12 10 -30 -15 -25 -33 -77 -64 -92 -55 -17 11 -11 41 13 62 32
30 66 45 84 39 13 -5 14 -4 3 9 -19 23 -65 18 -99 -11z"/>
<path d="M4002 1137 c-8 -9 -12 -26 -10 -39 2 -19 10 -24 43 -26 47 -4 68 -19
62 -44 -8 -30 10 -20 24 13 12 29 11 33 -11 51 -13 10 -33 18 -44 17 -38 -2
-45 1 -48 23 -3 19 -4 20 -16 5z"/>
<path d="M1043 1048 c-29 -30 -53 -59 -53 -66 0 -23 25 -12 71 34 44 44 69 50
69 19 0 -16 -33 -37 -51 -33 -14 3 -39 -38 -39 -64 0 -32 21 -29 35 6 11 26
22 35 42 38 40 4 42 43 6 86 l-28 33 -52 -53z"/>
<path d="M3900 1028 c0 -7 12 -24 27 -40 14 -15 24 -30 21 -33 -3 -3 -26 -1
-51 6 -25 6 -51 9 -57 7 -6 -2 12 -29 41 -61 42 -47 54 -55 66 -46 12 10 9 17
-18 45 -18 19 -30 36 -28 38 3 3 29 -1 59 -9 30 -8 56 -12 58 -10 4 4 -10 23
-67 88 -25 28 -51 36 -51 15z"/>
<path d="M1138 936 l-48 -53 31 -29 c24 -22 28 -24 18 -7 -11 19 -11 25 6 43
13 14 22 17 29 10 16 -16 30 -12 16 6 -11 13 -10 19 8 36 18 19 23 20 39 7 10
-7 7 -1 -6 14 -14 15 -29 27 -35 26 -6 -1 -32 -25 -58 -53z"/>
<path d="M1236 861 c-25 -33 -46 -62 -46 -65 0 -11 64 -46 83 -46 26 0 77 54
77 82 -1 23 -19 51 -51 76 -14 10 -23 3 -63 -47z m84 -6 c0 -27 -51 -85 -74
-85 -25 0 -19 19 21 71 38 50 53 54 53 14z"/>
<path d="M3764 906 c-4 -10 6 -47 22 -84 20 -46 30 -61 32 -47 7 34 22 45 53
38 44 -8 37 17 -14 50 -23 15 -52 35 -64 43 -21 15 -23 15 -29 0z m59 -64 c10
-10 14 -22 10 -25 -13 -14 -30 -6 -41 18 -14 31 6 35 31 7z"/>
<path d="M3676 841 c-8 -13 82 -133 94 -126 17 11 11 27 -30 82 -40 52 -54 62
-64 44z"/>
<path d="M1404 743 c-49 -76 -49 -77 -17 -93 37 -19 52 -24 31 -10 -22 13 -22
29 -3 54 12 16 18 17 27 8 7 -7 17 -12 23 -12 5 0 1 7 -9 15 -17 13 -18 18 -7
41 9 20 17 25 34 20 21 -5 21 -4 -3 14 -14 11 -28 20 -32 20 -4 0 -24 -26 -44
-57z"/>
<path d="M3586 782 c-6 -9 73 -132 84 -132 4 0 18 9 31 19 21 18 22 19 4 15
-16 -4 -28 7 -55 51 -33 51 -52 66 -64 47z"/>
<path d="M1506 674 c-34 -61 -38 -84 -15 -84 5 0 17 16 26 35 19 40 32 45 34
13 1 -13 2 -27 4 -33 1 -5 3 -20 3 -32 1 -13 6 -23 11 -23 9 0 71 112 71 129
0 25 -31 9 -47 -24 -9 -19 -20 -35 -25 -35 -4 0 -8 24 -8 54 0 30 -4 57 -9 60
-5 4 -25 -24 -45 -60z"/>
<path d="M3504 727 c-2 -7 2 -41 10 -76 15 -63 26 -88 26 -59 0 9 7 21 16 29
13 10 19 10 36 0 15 -9 23 -10 31 -2 8 8 -4 26 -43 66 -57 58 -67 63 -76 42z
m54 -95 c-10 -12 -14 -11 -25 4 -7 10 -13 27 -13 38 0 18 1 18 25 -4 20 -19
22 -26 13 -38z"/>
<path d="M3398 679 c-38 -19 -49 -31 -26 -26 7 1 27 -25 44 -58 18 -33 37 -61
42 -63 24 -8 21 21 -8 78 -25 49 -29 65 -19 76 15 18 12 17 -33 -7z"/>
<path d="M1652 595 c-18 -36 -32 -67 -32 -70 0 -7 72 -36 77 -31 3 2 -5 7 -16
11 -24 7 -26 17 -10 46 7 15 16 18 32 13 21 -6 21 -5 4 8 -16 12 -17 17 -6 41
9 21 17 26 33 22 17 -5 16 -3 -4 9 -14 9 -30 15 -35 16 -6 0 -25 -29 -43 -65z"/>
<path d="M3302 631 c-11 -6 -8 -21 13 -72 31 -75 36 -81 53 -70 11 6 8 21 -13
72 -31 75 -36 81 -53 70z"/>
<path d="M1779 583 c-30 -75 -38 -106 -33 -115 12 -19 28 0 50 58 22 60 46 77
52 37 2 -17 -4 -26 -23 -35 -24 -11 -26 -16 -20 -47 10 -52 29 -59 33 -13 2
25 11 44 28 57 30 24 24 49 -17 70 -41 22 -58 18 -70 -12z"/>
<path d="M3127 568 c-23 -8 -26 -14 -21 -31 9 -26 9 -44 -1 -74 -5 -16 -1 -25
19 -38 23 -15 30 -15 68 -2 38 12 43 18 41 42 -3 34 -6 37 -26 29 -13 -5 -14
-10 -6 -25 13 -25 4 -39 -26 -39 -35 0 -46 47 -17 71 21 16 21 17 2 22 -27 7
-25 36 3 47 30 12 -1 11 -36 -2z"/>
<path d="M1928 540 c-9 -6 -22 -26 -28 -45 -10 -30 -9 -40 5 -61 17 -26 58
-47 83 -42 22 4 38 58 21 69 -21 13 -24 11 -25 -21 -1 -37 -6 -42 -28 -34 -44
17 -28 100 25 126 l34 18 -35 0 c-19 0 -43 -5 -52 -10z"/>
<path d="M2075 488 c5 -24 8 -62 7 -85 -3 -54 22 -60 37 -8 5 19 19 48 31 65
12 17 20 34 17 36 -3 3 -13 -6 -22 -20 -21 -31 -35 -33 -35 -5 0 26 -18 59
-32 59 -7 0 -8 -14 -3 -42z"/>
<path d="M2960 523 c-17 -6 -40 -32 -40 -45 0 -5 17 -24 37 -43 37 -33 37 -34
18 -54 -21 -24 -17 -26 19 -9 44 19 44 48 0 84 -38 32 -38 33 -20 53 19 21 15
24 -14 14z"/>
<path d="M2856 467 l-19 -32 -9 28 c-5 15 -17 27 -25 27 -13 0 -14 -10 -9 -57
9 -77 15 -93 32 -93 9 0 14 10 14 27 l0 26 24 -22 c13 -13 32 -21 42 -19 15 3
13 9 -16 41 -33 38 -33 38 -17 73 21 43 8 45 -17 1z"/>
<path d="M2246 458 c-3 -18 -7 -53 -8 -78 l-3 -45 44 1 c52 1 81 28 81 76 0
39 -40 78 -79 78 -26 0 -31 -4 -35 -32z m74 -37 c0 -37 -23 -81 -42 -81 -10 0
-3 114 9 133 11 17 33 -17 33 -52z"/>
<path d="M2400 400 c0 -64 3 -80 15 -80 12 0 15 14 15 68 0 76 4 86 31 71 24
-13 24 -35 0 -56 -16 -13 -17 -20 -8 -42 15 -36 33 -55 46 -47 7 5 5 18 -7 42
-16 34 -16 36 1 45 9 6 17 21 17 35 0 27 -30 44 -81 44 l-29 0 0 -80z"/>
<path d="M2557 473 c-4 -3 -7 -39 -7 -80 0 -63 2 -73 18 -73 16 0 17 8 14 73
-4 70 -11 94 -25 80z"/>
<path d="M2716 435 c8 -56 -4 -58 -41 -5 -15 22 -32 40 -36 40 -10 0 -12 -93
-3 -127 12 -43 34 -27 34 25 l1 47 38 -45 c22 -25 42 -43 44 -40 3 3 3 38 0
78 -5 63 -8 72 -25 72 -17 0 -18 -5 -12 -45z"/>
</g>
</svg>
